<mxfile host="app.diagrams.net" modified="2021-04-20T05:25:14.109Z" agent="5.0 (Macintosh; Intel Mac OS X 10_15_5) AppleWebKit/537.36 (KHTML, like Gecko) Chrome/89.0.4389.128 Safari/537.36" etag="y3jHCCmh79-IFyuyj4Qz" version="14.6.3" type="github">
  <diagram name="Page-1" id="0783ab3e-0a74-02c8-0abd-f7b4e66b4bec">
    <mxGraphModel dx="805" dy="625" grid="1" gridSize="10" guides="1" tooltips="1" connect="1" arrows="1" fold="1" page="1" pageScale="1" pageWidth="850" pageHeight="1100" background="#ffffff" math="0" shadow="0">
      <root>
        <mxCell id="0" />
        <mxCell id="1" parent="0" />
        <mxCell id="1c1d494c118603dd-1" value="通用词分地域报价数据流" style="swimlane;html=1;childLayout=stackLayout;startSize=20;rounded=0;shadow=0;comic=0;labelBackgroundColor=none;strokeWidth=1;fontFamily=Verdana;fontSize=12;align=center;" parent="1" vertex="1">
          <mxGeometry x="40" width="1820" height="990" as="geometry" />
        </mxCell>
        <mxCell id="1c1d494c118603dd-2" value="离线" style="swimlane;html=1;startSize=20;" parent="1c1d494c118603dd-1" vertex="1">
          <mxGeometry y="20" width="870" height="970" as="geometry" />
        </mxCell>
        <mxCell id="OtMFD-Auc2nDrL3-JxV4-11" style="edgeStyle=orthogonalEdgeStyle;rounded=0;orthogonalLoop=1;jettySize=auto;html=1;exitX=1;exitY=0.5;exitDx=0;exitDy=0;entryX=0;entryY=0.5;entryDx=0;entryDy=0;dashed=1;dashPattern=1 4;" edge="1" parent="1c1d494c118603dd-2" source="OtMFD-Auc2nDrL3-JxV4-2" target="OtMFD-Auc2nDrL3-JxV4-3">
          <mxGeometry relative="1" as="geometry" />
        </mxCell>
        <mxCell id="OtMFD-Auc2nDrL3-JxV4-2" value="afs：图灵视图日志" style="shape=parallelogram;perimeter=parallelogramPerimeter;whiteSpace=wrap;html=1;fixedSize=1;" vertex="1" parent="1c1d494c118603dd-2">
          <mxGeometry x="50" y="280" width="120" height="60" as="geometry" />
        </mxCell>
        <mxCell id="OtMFD-Auc2nDrL3-JxV4-12" style="edgeStyle=orthogonalEdgeStyle;rounded=0;orthogonalLoop=1;jettySize=auto;html=1;exitX=1;exitY=0.5;exitDx=0;exitDy=0;entryX=0;entryY=0.5;entryDx=0;entryDy=0;dashed=1;dashPattern=1 4;" edge="1" parent="1c1d494c118603dd-2" source="OtMFD-Auc2nDrL3-JxV4-3" target="OtMFD-Auc2nDrL3-JxV4-7">
          <mxGeometry relative="1" as="geometry" />
        </mxCell>
        <mxCell id="OtMFD-Auc2nDrL3-JxV4-3" value="afs：分地域凤巢消费&lt;br&gt;（天粒度）" style="shape=parallelogram;perimeter=parallelogramPerimeter;whiteSpace=wrap;html=1;fixedSize=1;fillColor=#fff2cc;strokeColor=#d6b656;" vertex="1" parent="1c1d494c118603dd-2">
          <mxGeometry x="230" y="280" width="160" height="60" as="geometry" />
        </mxCell>
        <mxCell id="OtMFD-Auc2nDrL3-JxV4-8" style="edgeStyle=orthogonalEdgeStyle;rounded=0;orthogonalLoop=1;jettySize=auto;html=1;exitX=1;exitY=0.5;exitDx=0;exitDy=0;entryX=0.5;entryY=1;entryDx=0;entryDy=0;dashed=1;dashPattern=1 4;" edge="1" parent="1c1d494c118603dd-2" source="OtMFD-Auc2nDrL3-JxV4-4" target="OtMFD-Auc2nDrL3-JxV4-7">
          <mxGeometry relative="1" as="geometry" />
        </mxCell>
        <mxCell id="OtMFD-Auc2nDrL3-JxV4-4" value="afs：pvstat分地域pv数据&lt;br&gt;（天粒度）" style="shape=parallelogram;perimeter=parallelogramPerimeter;whiteSpace=wrap;html=1;fixedSize=1;" vertex="1" parent="1c1d494c118603dd-2">
          <mxGeometry x="230" y="400" width="160" height="60" as="geometry" />
        </mxCell>
        <mxCell id="OtMFD-Auc2nDrL3-JxV4-9" style="edgeStyle=orthogonalEdgeStyle;rounded=0;orthogonalLoop=1;jettySize=auto;html=1;exitX=1;exitY=0.5;exitDx=0;exitDy=0;dashed=1;dashPattern=1 4;entryX=0.5;entryY=1;entryDx=0;entryDy=0;" edge="1" parent="1c1d494c118603dd-2" source="OtMFD-Auc2nDrL3-JxV4-5" target="OtMFD-Auc2nDrL3-JxV4-7">
          <mxGeometry relative="1" as="geometry">
            <mxPoint x="630" y="350" as="targetPoint" />
          </mxGeometry>
        </mxCell>
        <mxCell id="OtMFD-Auc2nDrL3-JxV4-5" value="query分地域通用词&lt;br&gt;在线数据" style="shape=parallelogram;perimeter=parallelogramPerimeter;whiteSpace=wrap;html=1;fixedSize=1;" vertex="1" parent="1c1d494c118603dd-2">
          <mxGeometry x="230" y="520" width="150" height="60" as="geometry" />
        </mxCell>
        <mxCell id="OtMFD-Auc2nDrL3-JxV4-6" value="&lt;meta charset=&quot;utf-8&quot;&gt;&lt;span style=&quot;color: rgb(51, 51, 51); font-family: museo, segoe, &amp;quot;segoe ui&amp;quot;, helvetica, arial, sans-serif; font-size: 14px; font-style: normal; font-weight: 400; letter-spacing: normal; text-align: left; text-indent: 0px; text-transform: none; word-spacing: 0px; background-color: rgb(255, 255, 255); display: inline; float: none;&quot;&gt;【query, channel, date, show1, click1, price1, bid1, show2, click2, price2, bid2, show3, click3, price3, bid3, pv, offline_dates, trades, src_flag, province_id, city_id】&lt;/span&gt;" style="text;whiteSpace=wrap;html=1;" vertex="1" parent="1c1d494c118603dd-2">
          <mxGeometry x="470" y="200" width="360" height="50" as="geometry" />
        </mxCell>
        <mxCell id="OtMFD-Auc2nDrL3-JxV4-7" value="afs：分地域CPM数据" style="shape=parallelogram;perimeter=parallelogramPerimeter;whiteSpace=wrap;html=1;fixedSize=1;fillColor=#fff2cc;strokeColor=#d6b656;" vertex="1" parent="1c1d494c118603dd-2">
          <mxGeometry x="540" y="280" width="170" height="60" as="geometry" />
        </mxCell>
        <mxCell id="OtMFD-Auc2nDrL3-JxV4-10" value="&lt;meta charset=&quot;utf-8&quot;&gt;&lt;span style=&quot;color: rgb(51, 51, 51); font-family: museo, segoe, &amp;quot;segoe ui&amp;quot;, helvetica, arial, sans-serif; font-size: 14px; font-style: normal; font-weight: 400; letter-spacing: normal; text-align: left; text-indent: 0px; text-transform: none; word-spacing: 0px; background-color: rgb(255, 255, 255); display: inline; float: none;&quot;&gt;【key, show, click, price, bid, trades】其中key = query_rank_provinceid&lt;/span&gt;" style="text;whiteSpace=wrap;html=1;" vertex="1" parent="1c1d494c118603dd-2">
          <mxGeometry x="210" y="200" width="240" height="50" as="geometry" />
        </mxCell>
        <mxCell id="1c1d494c118603dd-3" value="在线" style="swimlane;html=1;startSize=20;" parent="1c1d494c118603dd-1" vertex="1">
          <mxGeometry x="870" y="20" width="250" height="970" as="geometry" />
        </mxCell>
        <mxCell id="OtMFD-Auc2nDrL3-JxV4-13" value="BaikalDB" style="shape=cylinder3;whiteSpace=wrap;html=1;boundedLbl=1;backgroundOutline=1;size=15;" vertex="1" parent="1c1d494c118603dd-3">
          <mxGeometry x="45" y="120" width="135" height="60" as="geometry" />
        </mxCell>
        <mxCell id="1c1d494c118603dd-4" value="报价平台" style="swimlane;html=1;startSize=20;" parent="1c1d494c118603dd-1" vertex="1">
          <mxGeometry x="1120" y="20" width="250" height="970" as="geometry" />
        </mxCell>
        <mxCell id="OtMFD-Auc2nDrL3-JxV4-1" value="业务端" style="swimlane;html=1;startSize=20;" vertex="1" parent="1c1d494c118603dd-1">
          <mxGeometry x="1370" y="20" width="450" height="970" as="geometry" />
        </mxCell>
        <mxCell id="OtMFD-Auc2nDrL3-JxV4-14" style="edgeStyle=orthogonalEdgeStyle;rounded=0;orthogonalLoop=1;jettySize=auto;html=1;exitX=1;exitY=0.5;exitDx=0;exitDy=0;entryX=0.5;entryY=1;entryDx=0;entryDy=0;entryPerimeter=0;dashed=1;dashPattern=1 4;" edge="1" parent="1c1d494c118603dd-1" source="OtMFD-Auc2nDrL3-JxV4-7" target="OtMFD-Auc2nDrL3-JxV4-13">
          <mxGeometry relative="1" as="geometry" />
        </mxCell>
      </root>
    </mxGraphModel>
  </diagram>
</mxfile>
